<svg id="Duotone" xmlns="http://www.w3.org/2000/svg" viewBox="0 0 100 112">
  <defs>
    <style>
      .cls-1{fill:#f0f2ff;}.cls-2{fill:none;}.cls-2,.cls-6,.cls-7{stroke:#4550e5;stroke-linecap:round;stroke-linejoin:round;}.cls-3,.cls-6{fill:#fff;}.cls-4,.cls-7{fill:#d6daff;}.cls-5{fill:#4550e5;}
    </style>
  </defs>
  <g id="Icons">
    <g id="Background">
      <g id="New_Symbol_80-3" data-name="New Symbol 80">
        <path class="cls-1" d="M90,56A40,40,0,1,0,13.57,72.51H86.44A39.74,39.74,0,0,0,90,56Z"/>
        <line class="cls-2" x1="10.51" y1="72.51" x2="88.51" y2="72.51"/>
        <line class="cls-2" x1="6.01" y1="72.51" x2="8.51" y2="72.51"/>
        <line class="cls-2" x1="90.51" y1="72.51" x2="93.01" y2="72.51"/>
      </g>
    </g>
    <g id="Scene">
      <path class="cls-3" d="M58.51,63.5h18a1,1,0,0,1,1,1v8a0,0,0,0,1,0,0h-20a0,0,0,0,1,0,0v-8A1,1,0,0,1,58.51,63.5Z"/>
      <path class="cls-2" d="M58.51,63.5h18a1,1,0,0,1,1,1v8a0,0,0,0,1,0,0h-20a0,0,0,0,1,0,0v-8A1,1,0,0,1,58.51,63.5Z"/>
      <path class="cls-4"
            d="M60.51,52.5h14a1,1,0,0,1,1,1v10a0,0,0,0,1,0,0h-16a0,0,0,0,1,0,0v-10A1,1,0,0,1,60.51,52.5Z"/>
      <path class="cls-3" d="M60.51,52.5h14a1,1,0,0,1,1,1v3a0,0,0,0,1,0,0h-16a0,0,0,0,1,0,0v-3A1,1,0,0,1,60.51,52.5Z"/>
      <rect class="cls-3" x="59.51" y="61.5" width="16" height="2"/>
      <path class="cls-4" d="M61.51,56.5h4a0,0,0,0,1,0,0v1a1,1,0,0,1-1,1h-2a1,1,0,0,1-1-1v-1A0,0,0,0,1,61.51,56.5Z"/>
      <path class="cls-5" d="M61.51,54a.5.5,0,0,0-.5.5.5.5,0,0,0,.5.5.5.5,0,0,0,.5-.5.51.51,0,0,0-.5-.5Z"/>
      <path class="cls-5" d="M73.51,54a.5.5,0,0,0-.5.5.5.5,0,0,0,.5.5.5.5,0,0,0,.5-.5.51.51,0,0,0-.5-.5Z"/>
      <line class="cls-2" x1="64.51" y1="54.5" x2="70.51" y2="54.5"/>
      <line class="cls-2" x1="63.51" y1="58.5" x2="63.51" y2="59.5"/>
      <path class="cls-2"
            d="M60.51,52.5h14a1,1,0,0,1,1,1v10a0,0,0,0,1,0,0h-16a0,0,0,0,1,0,0v-10A1,1,0,0,1,60.51,52.5Z"/>
      <path class="cls-2" d="M60.51,52.5h14a1,1,0,0,1,1,1v3a0,0,0,0,1,0,0h-16a0,0,0,0,1,0,0v-3A1,1,0,0,1,60.51,52.5Z"/>
      <rect class="cls-2" x="59.51" y="61.5" width="16" height="2"/>
      <path class="cls-2" d="M61.51,56.5h4a0,0,0,0,1,0,0v1a1,1,0,0,1-1,1h-2a1,1,0,0,1-1-1v-1A0,0,0,0,1,61.51,56.5Z"/>
      <path class="cls-4" d="M69.51,56.5h4a0,0,0,0,1,0,0v1a1,1,0,0,1-1,1h-2a1,1,0,0,1-1-1v-1A0,0,0,0,1,69.51,56.5Z"/>
      <line class="cls-2" x1="71.51" y1="58.5" x2="71.51" y2="59.5"/>
      <path class="cls-2" d="M69.51,56.5h4a0,0,0,0,1,0,0v1a1,1,0,0,1-1,1h-2a1,1,0,0,1-1-1v-1A0,0,0,0,1,69.51,56.5Z"/>
      <ellipse class="cls-1" cx="41.54" cy="87.68" rx="11.5" ry="1.72"/>
      <path class="cls-6"
            d="M49.6,34.55a1.41,1.41,0,0,0-1.15-1.38v-.92a6.9,6.9,0,0,0-13.8,0v.92a1.41,1.41,0,0,0-1.15,1.38A1.43,1.43,0,0,0,34.79,36,6.9,6.9,0,0,0,48.3,36,1.43,1.43,0,0,0,49.6,34.55Z"/>
      <path class="cls-5" d="M39,32.25a.86.86,0,1,0,.86.86.85.85,0,0,0-.86-.86Z"/>
      <path class="cls-5" d="M44.14,32.25a.86.86,0,1,0,.86.86.86.86,0,0,0-.86-.86Z"/>
      <circle class="cls-4" cx="37.81" cy="35.41" r="0.86"/>
      <circle class="cls-4" cx="45.29" cy="35.41" r="0.86"/>
      <path class="cls-6"
            d="M34.65,31.1a5.73,5.73,0,0,1,2.87-4.6c2.21-1.33,3.45-1.73,2.88-2.88,0,0,1.72.58,1.15,1.73,0,0,1.72-1.15,0-3.45,0,0,3.45,1.15,2.3,3.45A2.14,2.14,0,0,0,45,23.62s3.45,1.73,3.45,7.48v2.07C47.07,33,46.72,32,46.55,31A1.36,1.36,0,0,0,45,29.84a17.22,17.22,0,0,1-6.81,0A1.36,1.36,0,0,0,36.54,31c-.16,1-.51,2-1.89,2.2Z"/>
      <path class="cls-6"
            d="M41.55,43.17a15.37,15.37,0,0,0,2.77-.72,5.28,5.28,0,0,0,3.58-4L48.3,36a2.3,2.3,0,0,1-2.1,2,3.4,3.4,0,0,1-2.48-.46,4.13,4.13,0,0,0-4.35,0,3.39,3.39,0,0,1-2.48.46,2.3,2.3,0,0,1-2.1-2l.41,2.48a5.27,5.27,0,0,0,3.57,4A15.41,15.41,0,0,0,41.55,43.17Z"/>
      <path class="cls-4" d="M53.27,55.48a11.73,11.73,0,0,0-23.46,0v.69H34v9.66H49.13V56.17h4.14Z"/>
      <path class="cls-6"
            d="M29.81,57.55a2.07,2.07,0,0,1-4.14,0,2.07,2.07,0,0,0-4.14,0,6.21,6.21,0,0,0,12.42,0V56.17H29.81Z"/>
      <path class="cls-3" d="M34,65.83v20h5.52l.63-14.5a1.44,1.44,0,0,1,2.88,0l.63,14.5h5.52v-20Z"/>
      <path class="cls-2" d="M34,65.83v20h5.52l.63-14.5a1.44,1.44,0,0,1,2.88,0l.63,14.5h5.52v-20Z"/>
      <path class="cls-7"
            d="M33.09,84.74a1.16,1.16,0,0,0,1,1.79h4.71a1.16,1.16,0,0,0,1-1.69C38.52,82.44,34.52,82.57,33.09,84.74Z"/>
      <path class="cls-7"
            d="M50,84.74a1.16,1.16,0,0,1-1,1.79H44.33a1.15,1.15,0,0,1-1-1.69C44.56,82.44,48.56,82.57,50,84.74Z"/>
      <path class="cls-2" d="M53.27,55.48a11.73,11.73,0,0,0-23.46,0v.69H34v9.66H49.13V56.17h4.14Z"/>
      <line class="cls-2" x1="33.95" y1="52.03" x2="33.95" y2="54.79"/>
      <line class="cls-2" x1="49.13" y1="52.03" x2="49.13" y2="54.79"/>
      <path class="cls-6" d="M49.13,68.59a2.07,2.07,0,1,0,4.14,0V56.17H49.13Z"/>
      <path class="cls-6"
            d="M47.75,54.79a1.38,1.38,0,0,1-1.38-1.38V44.78a11.64,11.64,0,0,0-2.76-.85v9.48a1.38,1.38,0,0,1-1.38,1.38H40.85a1.38,1.38,0,0,1-1.38-1.38V43.93a11.79,11.79,0,0,0-2.76.85v8.63a1.38,1.38,0,0,1-1.38,1.38H34V78.25H49.13V54.79Z"/>
      <path class="cls-6" d="M37.85,44.34h0l3.69,4.92,3.7-4.92h0a11.87,11.87,0,0,0-7.39,0Z"/>
      <path class="cls-7"
            d="M30.12,54.79H34a0,0,0,0,1,0,0v2.76a0,0,0,0,1,0,0H30.12a1,1,0,0,1-1-1v-.76A1,1,0,0,1,30.12,54.79Z"/>
      <path class="cls-7"
            d="M49.13,54.79H53a1,1,0,0,1,1,1v.76a1,1,0,0,1-1,1H49.13a0,0,0,0,1,0,0V54.79A0,0,0,0,1,49.13,54.79Z"/>
      <path class="cls-7"
            d="M45.25,44.34h0l-3.7,4.92,1.86.92a1.16,1.16,0,0,0,1.47-.39l2.86-4.29A12.24,12.24,0,0,0,45.25,44.34Z"/>
      <path class="cls-7"
            d="M37.84,44.34h0l3.69,4.92-1.85.92a1.15,1.15,0,0,1-1.47-.39l-2.86-4.29A12,12,0,0,1,37.84,44.34Z"/>
      <path class="cls-6"
            d="M17.05,52.72a.69.69,0,0,0-.59,1.06,3.5,3.5,0,0,0,3,1.7h8.28a3.5,3.5,0,0,0,3-1.7.69.69,0,0,0-.59-1.06Z"/>
      <path class="cls-6" d="M26.36,50a2.76,2.76,0,1,1-5.52,0Z"/>
      <path class="cls-2" d="M26.36,50a1.37,1.37,0,0,1,1.38,1.38"/>
      <path class="cls-6"
            d="M22.28,43.58c-.47,1.89,2,1.56,1.17,3.85A26,26,0,0,0,25,44.25a1.38,1.38,0,0,0-1-1.68A1.4,1.4,0,0,0,22.28,43.58Z"/>
      <rect class="cls-2" x="37.85" y="65.12" width="7.4" height="4.83" rx="1" ry="1"/>
    </g>
  </g>
</svg>
