<?xml version="1.0" encoding="UTF-8"?><svg width="20" height="20" version="1.1" viewBox="0 0 20 20" xmlns="http://www.w3.org/2000/svg" xmlns:xlink="http://www.w3.org/1999/xlink"><!--Generated by IJSVG (https://github.com/iconjar/IJSVG)--><g transform="scale(0.833333)"><path fill="none" stroke="#000" stroke-linecap="round" stroke-linejoin="round" stroke-width="1.5" d="M12,18.75h-1.63918e-08c-0.207107,9.05293e-09 -0.375,0.167893 -0.375,0.375c9.05293e-09,0.207107 0.167893,0.375 0.375,0.375c0.207107,-9.05293e-09 0.375,-0.167893 0.375,-0.375v1.63918e-08c0,-0.207107 -0.167893,-0.375 -0.375,-0.375v0"></path><path fill="none" stroke="#000" stroke-linecap="round" stroke-width="1.5" d="M12,15.75v-7.5"></path><path fill="none" stroke="#000" stroke-linecap="round" stroke-linejoin="round" stroke-width="1.5" d="M13.621,1.76l3.9326e-08,8.00607e-08c-0.43975,-0.895254 -1.52198,-1.26451 -2.41724,-0.824762c-0.358575,0.176133 -0.648629,0.466187 -0.824762,0.824762l-9.473,19.298l-1.5871e-08,3.22857e-08c-0.370583,0.753864 -0.0598732,1.66541 0.69399,2.03599c0.209097,0.102788 0.439014,0.156164 0.67201,0.156009h19.456l4.34975e-08,2.88658e-11c0.840025,0.000557409 1.52145,-0.679965 1.52201,-1.51999c0.000154607,-0.232996 -0.0532212,-0.462912 -0.156009,-0.67201Z"></path></g></svg>