<?xml version="1.0" encoding="UTF-8"?><svg width="20" height="20" version="1.1" viewBox="0 0 20 20" xmlns="http://www.w3.org/2000/svg" xmlns:xlink="http://www.w3.org/1999/xlink"><!--Generated by IJSVG (https://github.com/iconjar/IJSVG)--><g transform="scale(0.833333)"><path fill="none" stroke="#000" stroke-linecap="round" stroke-linejoin="round" stroke-width="1.5" d="M1.5,4.5h21"></path><path fill="none" stroke="#000" stroke-linecap="round" stroke-linejoin="round" stroke-width="1.5" d="M14.25,1.5h-4.5l-6.55671e-08,1.55431e-15c-0.828427,3.62117e-08 -1.5,0.671573 -1.5,1.5c0,0 0,4.44089e-16 0,4.44089e-16v1.5h7.5v-1.5h-1.77636e-15c0,-0.828427 -0.671573,-1.5 -1.5,-1.5c0,0 -1.77636e-15,0 -1.77636e-15,0Z"></path><path fill="none" stroke="#000" stroke-linecap="round" stroke-linejoin="round" stroke-width="1.5" d="M9.75,17.25v-7.5"></path><path fill="none" stroke="#000" stroke-linecap="round" stroke-linejoin="round" stroke-width="1.5" d="M14.25,17.25v-7.5"></path><path fill="none" stroke="#000" stroke-linecap="round" stroke-linejoin="round" stroke-width="1.5" d="M18.865,21.124l1.37066e-08,-1.65238e-07c-0.0645133,0.777732 -0.714596,1.37607 -1.495,1.376h-10.739l-7.43476e-08,6.64713e-12c-0.780403,6.97394e-05 -1.43049,-0.598268 -1.495,-1.376l-1.386,-16.624h16.5Z"></path></g></svg>