<?xml version="1.0" encoding="UTF-8"?><svg width="20" height="20" version="1.1" viewBox="0 0 20 20" xmlns="http://www.w3.org/2000/svg" xmlns:xlink="http://www.w3.org/1999/xlink"><!--Generated by IJSVG (https://github.com/iconjar/IJSVG)--><g transform="scale(0.833333)"><path fill="none" stroke="#000" stroke-linecap="round" stroke-linejoin="round" stroke-width="1.5" d="M23.25,13.5v-7.5v0c0,-0.828427 -0.671573,-1.5 -1.5,-1.5h-12l-6.55671e-08,1.77636e-15c-0.828427,3.62117e-08 -1.5,0.671573 -1.5,1.5c0,0 0,8.88178e-16 0,8.88178e-16v6"></path><path fill="none" stroke="#000" stroke-linecap="round" stroke-linejoin="round" stroke-width="1.5" d="M8.25,12v-6h-3l-1.96701e-07,3.55271e-15c-2.48528,1.08635e-07 -4.5,2.01472 -4.5,4.5c0,0 0,1.77636e-15 0,1.77636e-15v6l4.21885e-15,2.97924e-08c1.25089e-07,0.828427 0.671573,1.5 1.5,1.5h0.75"></path><path fill="none" stroke="#000" stroke-linecap="round" stroke-linejoin="round" stroke-width="1.5" d="M0.75,12h3l-6.55671e-08,-1.77636e-15c0.828427,3.62117e-08 1.5,-0.671573 1.5,-1.5v-4.5"></path><path fill="none" stroke="#000" stroke-linecap="round" stroke-linejoin="round" stroke-width="1.5" d="M9.09099,15.659c0.87868,0.87868 0.87868,2.3033 0,3.18198c-0.87868,0.87868 -2.3033,0.87868 -3.18198,0c-0.87868,-0.87868 -0.87868,-2.3033 0,-3.18198c0.87868,-0.87868 2.3033,-0.87868 3.18198,0"></path><path fill="none" stroke="#000" stroke-linecap="round" stroke-linejoin="round" stroke-width="1.5" d="M21.091,15.659c0.87868,0.87868 0.87868,2.3033 0,3.18198c-0.87868,0.87868 -2.3033,0.87868 -3.18198,0c-0.87868,-0.87868 -0.87868,-2.3033 0,-3.18198c0.87868,-0.87868 2.3033,-0.87868 3.18198,0"></path><path fill="none" stroke="#000" stroke-linecap="round" stroke-linejoin="round" stroke-width="1.5" d="M12,18h3"></path></g></svg>