<?xml version="1.0" encoding="UTF-8"?><svg width="20" height="20" version="1.1" viewBox="0 0 20 20" xmlns="http://www.w3.org/2000/svg" xmlns:xlink="http://www.w3.org/1999/xlink"><!--Generated by IJSVG (https://github.com/iconjar/IJSVG)--><g transform="scale(0.833333)"><path fill="none" stroke="#000" stroke-linecap="round" stroke-linejoin="round" stroke-width="1.5" d="M9.709,6.837l1.04002e-08,8.67456e-06c-0.000990832,-0.828427 -0.673366,-1.4992 -1.50179,-1.4982c-0.416891,0.000498618 -0.814768,0.174471 -1.0982,0.48019l-5.46101,5.91401l-1.68502e-07,1.82684e-07c-0.529876,0.574472 -0.529876,1.45953 3.27198e-07,2.034l5.458,5.914l1.47243e-08,1.58822e-08c0.563222,0.607514 1.51229,0.64342 2.1198,0.0801983c0.30572,-0.283431 0.479695,-0.681308 0.480196,-1.0982v-2.913h6l-3.27835e-07,7.10543e-15c4.14214,-1.81059e-07 7.5,3.35786 7.5,7.5v-6v0c0,-4.14214 -3.35786,-7.5 -7.5,-7.5h-6Z"></path></g></svg>