<?xml version="1.0" encoding="UTF-8"?><svg width="20" height="20" version="1.1" viewBox="0 0 20 20" xmlns="http://www.w3.org/2000/svg" xmlns:xlink="http://www.w3.org/1999/xlink"><!--Generated by IJSVG (https://github.com/iconjar/IJSVG)--><g transform="scale(0.833333)"><path fill="none" stroke="#000" stroke-linecap="round" stroke-linejoin="round" stroke-width="1.5" d="M0.75,23.25v-22.5"></path><path fill="none" stroke="#000" stroke-linecap="round" stroke-linejoin="round" stroke-width="1.5" d="M0.75,17.708l3.154,-0.97l-5.53793e-08,1.70496e-08c2.64311,-0.813734 5.50867,-0.449345 7.864,1l-9.24515e-07,-5.69827e-07c2.29723,1.4159 5.08372,1.80127 7.679,1.062l2.987,-0.854l3.43564e-08,-9.81402e-09c0.48309,-0.137996 0.81612,-0.579587 0.816,-1.082v-11.727l2.59764e-08,2.80539e-05c-0.000568075,-0.621872 -0.505156,-1.12554 -1.12703,-1.12497c-0.103805,9.48249e-05 -0.207098,0.0145434 -0.306945,0.0429352l-2.369,0.677l-2.22624e-07,6.35881e-08c-2.59445,0.741052 -5.38089,0.357867 -7.679,-1.056l9.21966e-08,5.67328e-08c-2.35533,-1.44934 -5.22089,-1.81373 -7.864,-1l-3.15403,0.969008"></path></g></svg>