<?xml version="1.0" encoding="UTF-8"?><svg width="20" height="20" version="1.1" viewBox="0 0 20 20" xmlns="http://www.w3.org/2000/svg" xmlns:xlink="http://www.w3.org/1999/xlink"><!--Generated by IJSVG (https://github.com/iconjar/IJSVG)--><g transform="scale(0.833333)"><path fill="none" stroke="#000" stroke-linecap="round" stroke-linejoin="round" stroke-width="1.5" d="M12.75,0.75l5.02175e-07,7.2408e-10c-5.7907,-0.00834968 -10.4918,4.67917 -10.5001,10.4699c-0.00283107,1.96341 0.545689,3.88817 1.58311,5.55513l-3.083,6.475l6.474,-3.084l4.96324e-07,3.08709e-07c4.92418,3.0628 11.3989,1.55385 14.4617,-3.37033c3.0628,-4.92418 1.55385,-11.3989 -3.37033,-14.4617c-1.67015,-1.03882 -3.59851,-1.58765 -5.56537,-1.58396Z"></path><path fill="none" stroke="#000" stroke-linecap="round" stroke-linejoin="round" stroke-width="1.5" d="M8.25,10.88v0"></path><path fill="none" stroke="#000" stroke-linecap="round" stroke-linejoin="round" stroke-width="1.5" d="M8.25,10.875h-1.63918e-08c-0.207107,9.05293e-09 -0.375,0.167893 -0.375,0.375c9.05293e-09,0.207107 0.167893,0.375 0.375,0.375c0.207107,-9.05293e-09 0.375,-0.167893 0.375,-0.375v0c0,-0.207107 -0.167893,-0.375 -0.375,-0.375"></path><path fill="none" stroke="#000" stroke-linecap="round" stroke-linejoin="round" stroke-width="1.5" d="M12.75,10.88v0"></path><path fill="none" stroke="#000" stroke-linecap="round" stroke-linejoin="round" stroke-width="1.5" d="M12.75,10.875h-1.63918e-08c-0.207107,9.05293e-09 -0.375,0.167893 -0.375,0.375c9.05293e-09,0.207107 0.167893,0.375 0.375,0.375c0.207107,-9.05293e-09 0.375,-0.167893 0.375,-0.375v0c0,-0.207107 -0.167893,-0.375 -0.375,-0.375"></path><path fill="none" stroke="#000" stroke-linecap="round" stroke-linejoin="round" stroke-width="1.5" d="M17.25,10.88v0"></path><path fill="none" stroke="#000" stroke-linecap="round" stroke-linejoin="round" stroke-width="1.5" d="M17.25,10.875h-1.63918e-08c-0.207107,9.05293e-09 -0.375,0.167893 -0.375,0.375c9.05293e-09,0.207107 0.167893,0.375 0.375,0.375c0.207107,-9.05293e-09 0.375,-0.167893 0.375,-0.375v0c0,-0.207107 -0.167893,-0.375 -0.375,-0.375"></path></g></svg>