<?xml version="1.0" encoding="UTF-8"?><svg version="1.1" width="20" height="20" viewBox="0 0 20 20" xmlns="http://www.w3.org/2000/svg" xmlns:xlink="http://www.w3.org/1999/xlink"><!--Generated by IJSVG (https://github.com/iconjar/IJSVG)--><g transform="scale(0.833333)"><path fill="none" stroke="#000" stroke-linecap="round" stroke-linejoin="round" stroke-width="1.5" d="M10.4168,4.95818c1.61091,1.61091 1.61091,4.22272 0,5.83363c-1.61091,1.61091 -4.22272,1.61091 -5.83363,1.77636e-15c-1.61091,-1.61091 -1.61091,-4.22272 -8.88178e-16,-5.83363c1.61091,-1.61091 4.22272,-1.61091 5.83363,-8.88178e-16"></path><path fill="none" stroke="#000" stroke-linecap="round" stroke-linejoin="round" stroke-width="1.5" d="M0.75,20.25l7.72715e-14,1.01922e-06c-5.62901e-07,-3.72792 3.02208,-6.75 6.75,-6.75c3.72792,-5.62901e-07 6.75,3.02208 6.75,6.75c0,0 0,7.10543e-15 0,7.10543e-15"></path><path fill="none" stroke="#000" stroke-linecap="round" stroke-linejoin="round" stroke-width="1.5" d="M14.251,4.416l4.62532e-08,-3.00537e-08c1.91033,-1.24126 4.46519,-0.698877 5.70646,1.21145c1.24126,1.91033 0.698877,4.46519 -1.21145,5.70646c-1.36892,0.889477 -3.13363,0.887946 -4.50101,-0.00390605"></path><path fill="none" stroke="#000" stroke-linecap="round" stroke-linejoin="round" stroke-width="1.5" d="M15,13.667l-7.0355e-07,1.59394e-07c3.63955,-0.824564 7.25843,1.45744 8.083,5.09699c0.110476,0.487633 0.166488,0.986021 0.167005,1.48601"></path></g></svg>
