<?xml version="1.0" encoding="UTF-8"?><svg width="20" height="20" version="1.1" viewBox="0 0 20 20" xmlns="http://www.w3.org/2000/svg" xmlns:xlink="http://www.w3.org/1999/xlink"><!--Generated by IJSVG (https://github.com/iconjar/IJSVG)--><g transform="scale(0.833333)"><path fill="none" stroke="#000" stroke-linecap="round" stroke-linejoin="round" stroke-width="1.5" d="M13.8432,18.7718c1.02513,1.02513 1.02513,2.68718 0,3.71231c-1.02513,1.02513 -2.68718,1.02513 -3.71231,0c-1.02513,-1.02513 -1.02513,-2.68718 0,-3.71231c1.02513,-1.02513 2.68718,-1.02513 3.71231,0"></path><path fill="none" stroke="#000" stroke-linecap="round" stroke-linejoin="round" stroke-width="1.5" d="M13.8432,1.52184c1.02513,1.02513 1.02513,2.68718 0,3.71231c-1.02513,1.02513 -2.68718,1.02513 -3.71231,0c-1.02513,-1.02513 -1.02513,-2.68718 0,-3.71231c1.02513,-1.02513 2.68718,-1.02513 3.71231,-4.44089e-16"></path><path fill="none" stroke="#000" stroke-linecap="round" stroke-linejoin="round" stroke-width="1.5" d="M13.8432,10.1468c1.02513,1.02513 1.02513,2.68718 0,3.71231c-1.02513,1.02513 -2.68718,1.02513 -3.71231,0c-1.02513,-1.02513 -1.02513,-2.68718 0,-3.71231c1.02513,-1.02513 2.68718,-1.02513 3.71231,0"></path></g></svg>