<?xml version="1.0" encoding="UTF-8"?><svg width="20" height="20" version="1.1" viewBox="0 0 20 20" xmlns="http://www.w3.org/2000/svg" xmlns:xlink="http://www.w3.org/1999/xlink"><!--Generated by IJSVG (https://github.com/iconjar/IJSVG)--><g transform="scale(0.833333)"><path fill="none" stroke="#000" stroke-linecap="round" stroke-linejoin="round" stroke-width="1.5" d="M21.4926,13.0074c2.34315,2.34315 2.34315,6.14214 0,8.48528c-2.34315,2.34315 -6.14214,2.34315 -8.48528,0c-2.34315,-2.34315 -2.34315,-6.14214 -1.77636e-15,-8.48528c2.34315,-2.34315 6.14214,-2.34315 8.48528,-1.77636e-15"></path><path fill="none" stroke="#000" stroke-linecap="round" stroke-linejoin="round" stroke-width="1.5" d="M17.25,14.25v6"></path><path fill="none" stroke="#000" stroke-linecap="round" stroke-linejoin="round" stroke-width="1.5" d="M14.25,17.25h6"></path><path fill="none" stroke="#000" stroke-linecap="round" stroke-linejoin="round" stroke-width="1.5" d="M8.25,20.25h-6l-2.85346e-08,7.10738e-10c-0.808294,0.0201329 -1.47987,-0.618798 -1.5,-1.42709c-0.000605234,-0.0242988 -0.000605233,-0.048609 1.42148e-09,-0.0729079v-14.893l-3.02309e-08,-9.22202e-07c-0.0281074,-0.857435 0.642664,-1.57605 1.5,-1.607h15l4.38612e-08,1.58319e-09c0.857337,0.030946 1.52811,0.749565 1.5,1.607v4.393"></path><path fill="none" stroke="#000" stroke-linecap="round" stroke-linejoin="round" stroke-width="1.5" d="M5.25,0.75v4.5"></path><path fill="none" stroke="#000" stroke-linecap="round" stroke-linejoin="round" stroke-width="1.5" d="M9.75,0.75v4.5"></path><path fill="none" stroke="#000" stroke-linecap="round" stroke-linejoin="round" stroke-width="1.5" d="M14.25,0.75v4.5"></path></g></svg>