<?xml version="1.0" encoding="UTF-8"?><svg width="20" height="20" version="1.1" viewBox="0 0 20 20" xmlns="http://www.w3.org/2000/svg" xmlns:xlink="http://www.w3.org/1999/xlink"><!--Generated by IJSVG (https://github.com/iconjar/IJSVG)--><g transform="scale(0.833333)"><path fill="none" stroke="#000" stroke-linecap="round" stroke-linejoin="round" stroke-width="1.5" d="M17.25,12v0c0,2.89949 -2.35051,5.25 -5.25,5.25c-2.89949,0 -5.25,-2.35051 -5.25,-5.25c0,-2.89949 2.35051,-5.25 5.25,-5.25l-2.29485e-07,5.32907e-15c2.89949,-1.26741e-07 5.25,2.3505 5.25,5.25c0,0 0,1.77636e-15 0,1.77636e-15Z"></path><path fill="none" stroke="#000" stroke-linecap="round" stroke-linejoin="round" stroke-width="1.5" d="M17.25,12v2.25l3.55271e-14,4.52987e-07c2.50178e-07,1.65685 1.34315,3 3,3c1.65685,-2.50178e-07 3,-1.34315 3,-3v-2.25l1.11123e-08,0.000500006c-3.55271e-15,-6.21265 -5.03635,-11.249 -11.249,-11.249c-6.21265,1.77636e-15 -11.249,5.03635 -11.249,11.249c0,6.21265 5.03635,11.249 11.249,11.249c2.43361,0 4.80159,-0.789209 6.7486,-2.2492"></path></g></svg>