<?xml version="1.0" encoding="UTF-8"?><svg width="20" height="20" version="1.1" viewBox="0 0 20 20" xmlns="http://www.w3.org/2000/svg" xmlns:xlink="http://www.w3.org/1999/xlink"><!--Generated by IJSVG (https://github.com/iconjar/IJSVG)--><g transform="scale(0.833333)"><path fill="none" stroke="#000" stroke-linecap="round" stroke-linejoin="round" stroke-width="1.5" d="M1.061,2.56v6.257l-2.15411e-08,0.000359056c-1.20108e-07,0.795441 0.315905,1.55832 0.878254,2.12089l11.5607,11.5617l-9.22958e-08,-9.22679e-08c0.58575,0.585573 1.53525,0.585573 2.121,1.84536e-07l6.879,-6.88l-4.5912e-08,4.59259e-08c0.585573,-0.58575 0.585573,-1.53525 9.1824e-08,-2.121l-11.561,-11.561l-4.69333e-08,-4.69032e-08c-0.562642,-0.562281 -1.32556,-0.878095 -2.121,-0.878h-6.257l-6.55671e-08,1.55431e-15c-0.828427,3.62117e-08 -1.5,0.671573 -1.5,1.5Z"></path><path fill="none" stroke="#000" stroke-linecap="round" stroke-linejoin="round" stroke-width="1.5" d="M7.37166,5.24934c0.585786,0.585786 0.585786,1.53553 0,2.12132c-0.585786,0.585786 -1.53553,0.585786 -2.12132,0c-0.585786,-0.585786 -0.585786,-1.53553 0,-2.12132c0.585786,-0.585786 1.53553,-0.585786 2.12132,0"></path></g></svg>